<svg viewBox="0 0 24 24" xmlns="http://www.w3.org/2000/svg">
  <!-- Green background -->
  <rect width="24" height="24" fill="#33cc33"/>
  
  <!-- QR Code dark squares - top section -->
  <rect x="3" y="3" width="4" height="4" fill="#001429"/>
  <rect x="4" y="4" width="2" height="2" fill="#33cc33"/>
  <rect x="9" y="3" width="2" height="1" fill="#001429"/>
  <rect x="12" y="3" width="5" height="1" fill="#001429"/>
  <rect x="18" y="3" width="2" height="1" fill="#001429"/>
  <rect x="21" y="3" width="1" height="6" fill="#001429"/>
  
  <!-- Middle section -->
  <rect x="9" y="5" width="10" height="2" fill="#001429"/>
  <rect x="18" y="8" width="2" height="1" fill="#001429"/>
  <rect x="20" y="9" width="1" height="2" fill="#001429"/>
  
  <!-- Lower middle section -->
  <rect x="3" y="8" width="1" height="6" fill="#001429"/>
  <rect x="5" y="9" width="5" height="2" fill="#001429"/>
  <rect x="12" y="9" width="5" height="2" fill="#001429"/>
  <rect x="6" y="11" width="2" height="2" fill="#001429"/>
  <rect x="10" y="11" width="2" height="2" fill="#001429"/>
  <rect x="13" y="11" width="2" height="1" fill="#001429"/>
  <rect x="16" y="9" width="3" height="4" fill="#001429"/>
  
  <!-- Bottom section -->
  <rect x="3" y="15" width="1" height="1" fill="#001429"/>
  <rect x="4" y="16" width="1" height="1" fill="#001429"/>
  <rect x="5" y="17" width="1" height="1" fill="#001429"/>
  <rect x="6" y="18" width="1" height="1" fill="#001429"/>
  
  <rect x="9" y="15" width="1" height="1" fill="#001429"/>
  <rect x="10" y="16" width="1" height="1" fill="#001429"/>
  <rect x="11" y="17" width="1" height="1" fill="#001429"/>
  <rect x="12" y="18" width="1" height="1" fill="#001429"/>
  
  <rect x="15" y="15" width="1" height="1" fill="#001429"/>
  <rect x="16" y="16" width="1" height="1" fill="#001429"/>
  <rect x="17" y="17" width="1" height="1" fill="#001429"/>
  <rect x="18" y="18" width="1" height="1" fill="#001429"/>
  
  <rect x="20" y="15" width="4" height="4" fill="#001429"/>
  <rect x="21" y="16" width="2" height="2" fill="#33cc33"/>
</svg>